<mxfile host="app.diagrams.net" modified="2024-04-12T15:23:51.086Z" agent="Mozilla/5.0 (Windows NT 10.0; Win64; x64) AppleWebKit/537.36 (KHTML, like Gecko) Chrome/123.0.0.0 Safari/537.36" version="24.2.3" etag="H0xJkIxbQ_yVPV-Wsgh1" type="github">
  <diagram name="Page-1" id="l2tlF1sPES8KSNsXE6rO">
    <mxGraphModel>
      <root>
        <mxCell id="0" />
        <mxCell id="1" parent="0" />
      </root>
    </mxGraphModel>
  </diagram>
</mxfile>
